<svg class="rich-terminal" viewBox="0 0 1482 1026.0" xmlns="http://www.w3.org/2000/svg">
    <!-- Generated with Rich https://www.textualize.io -->
    <style>

    @font-face {
        font-family: "Fira Code";
        src: local("FiraCode-Regular"),
                url("https://cdnjs.cloudflare.com/ajax/libs/firacode/6.2.0/woff2/FiraCode-Regular.woff2") format("woff2"),
                url("https://cdnjs.cloudflare.com/ajax/libs/firacode/6.2.0/woff/FiraCode-Regular.woff") format("woff");
        font-style: normal;
        font-weight: 400;
    }
    @font-face {
        font-family: "Fira Code";
        src: local("FiraCode-Bold"),
                url("https://cdnjs.cloudflare.com/ajax/libs/firacode/6.2.0/woff2/FiraCode-Bold.woff2") format("woff2"),
                url("https://cdnjs.cloudflare.com/ajax/libs/firacode/6.2.0/woff/FiraCode-Bold.woff") format("woff");
        font-style: bold;
        font-weight: 700;
    }

    .terminal-1228627594-matrix {
        font-family: Fira Code, monospace;
        font-size: 20px;
        line-height: 24.4px;
        font-variant-east-asian: full-width;
    }

    .terminal-1228627594-title {
        font-size: 18px;
        font-weight: bold;
        font-family: arial;
    }

    .terminal-1228627594-r1 { fill: #e0e0e0;font-weight: bold }
.terminal-1228627594-r2 { fill: #c5c8c6 }
.terminal-1228627594-r3 { fill: #e0e0e0 }
.terminal-1228627594-r4 { fill: #1e1e1e }
.terminal-1228627594-r5 { fill: #191919 }
.terminal-1228627594-r6 { fill: #2d2d2d }
.terminal-1228627594-r7 { fill: #c1c1c1 }
.terminal-1228627594-r8 { fill: #0c0c0c }
.terminal-1228627594-r9 { fill: #252525 }
.terminal-1228627594-r10 { fill: #6f6f6f;font-weight: bold }
.terminal-1228627594-r11 { fill: #151515 }
.terminal-1228627594-r12 { fill: #b0b0b0 }
.terminal-1228627594-r13 { fill: #a9a9a9 }
.terminal-1228627594-r14 { fill: #6b6b6b;font-weight: bold }
.terminal-1228627594-r15 { fill: #0d0d0d }
.terminal-1228627594-r16 { fill: #3a3a3a }
.terminal-1228627594-r17 { fill: #b0b0b0;font-weight: bold }
.terminal-1228627594-r18 { fill: #515151 }
    </style>

    <defs>
    <clipPath id="terminal-1228627594-clip-terminal">
      <rect x="0" y="0" width="1463.0" height="975.0" />
    </clipPath>
    <clipPath id="terminal-1228627594-line-0">
    <rect x="0" y="1.5" width="1464" height="24.65"/>
            </clipPath>
<clipPath id="terminal-1228627594-line-1">
    <rect x="0" y="25.9" width="1464" height="24.65"/>
            </clipPath>
<clipPath id="terminal-1228627594-line-2">
    <rect x="0" y="50.3" width="1464" height="24.65"/>
            </clipPath>
<clipPath id="terminal-1228627594-line-3">
    <rect x="0" y="74.7" width="1464" height="24.65"/>
            </clipPath>
<clipPath id="terminal-1228627594-line-4">
    <rect x="0" y="99.1" width="1464" height="24.65"/>
            </clipPath>
<clipPath id="terminal-1228627594-line-5">
    <rect x="0" y="123.5" width="1464" height="24.65"/>
            </clipPath>
<clipPath id="terminal-1228627594-line-6">
    <rect x="0" y="147.9" width="1464" height="24.65"/>
            </clipPath>
<clipPath id="terminal-1228627594-line-7">
    <rect x="0" y="172.3" width="1464" height="24.65"/>
            </clipPath>
<clipPath id="terminal-1228627594-line-8">
    <rect x="0" y="196.7" width="1464" height="24.65"/>
            </clipPath>
<clipPath id="terminal-1228627594-line-9">
    <rect x="0" y="221.1" width="1464" height="24.65"/>
            </clipPath>
<clipPath id="terminal-1228627594-line-10">
    <rect x="0" y="245.5" width="1464" height="24.65"/>
            </clipPath>
<clipPath id="terminal-1228627594-line-11">
    <rect x="0" y="269.9" width="1464" height="24.65"/>
            </clipPath>
<clipPath id="terminal-1228627594-line-12">
    <rect x="0" y="294.3" width="1464" height="24.65"/>
            </clipPath>
<clipPath id="terminal-1228627594-line-13">
    <rect x="0" y="318.7" width="1464" height="24.65"/>
            </clipPath>
<clipPath id="terminal-1228627594-line-14">
    <rect x="0" y="343.1" width="1464" height="24.65"/>
            </clipPath>
<clipPath id="terminal-1228627594-line-15">
    <rect x="0" y="367.5" width="1464" height="24.65"/>
            </clipPath>
<clipPath id="terminal-1228627594-line-16">
    <rect x="0" y="391.9" width="1464" height="24.65"/>
            </clipPath>
<clipPath id="terminal-1228627594-line-17">
    <rect x="0" y="416.3" width="1464" height="24.65"/>
            </clipPath>
<clipPath id="terminal-1228627594-line-18">
    <rect x="0" y="440.7" width="1464" height="24.65"/>
            </clipPath>
<clipPath id="terminal-1228627594-line-19">
    <rect x="0" y="465.1" width="1464" height="24.65"/>
            </clipPath>
<clipPath id="terminal-1228627594-line-20">
    <rect x="0" y="489.5" width="1464" height="24.65"/>
            </clipPath>
<clipPath id="terminal-1228627594-line-21">
    <rect x="0" y="513.9" width="1464" height="24.65"/>
            </clipPath>
<clipPath id="terminal-1228627594-line-22">
    <rect x="0" y="538.3" width="1464" height="24.65"/>
            </clipPath>
<clipPath id="terminal-1228627594-line-23">
    <rect x="0" y="562.7" width="1464" height="24.65"/>
            </clipPath>
<clipPath id="terminal-1228627594-line-24">
    <rect x="0" y="587.1" width="1464" height="24.65"/>
            </clipPath>
<clipPath id="terminal-1228627594-line-25">
    <rect x="0" y="611.5" width="1464" height="24.65"/>
            </clipPath>
<clipPath id="terminal-1228627594-line-26">
    <rect x="0" y="635.9" width="1464" height="24.65"/>
            </clipPath>
<clipPath id="terminal-1228627594-line-27">
    <rect x="0" y="660.3" width="1464" height="24.65"/>
            </clipPath>
<clipPath id="terminal-1228627594-line-28">
    <rect x="0" y="684.7" width="1464" height="24.65"/>
            </clipPath>
<clipPath id="terminal-1228627594-line-29">
    <rect x="0" y="709.1" width="1464" height="24.65"/>
            </clipPath>
<clipPath id="terminal-1228627594-line-30">
    <rect x="0" y="733.5" width="1464" height="24.65"/>
            </clipPath>
<clipPath id="terminal-1228627594-line-31">
    <rect x="0" y="757.9" width="1464" height="24.65"/>
            </clipPath>
<clipPath id="terminal-1228627594-line-32">
    <rect x="0" y="782.3" width="1464" height="24.65"/>
            </clipPath>
<clipPath id="terminal-1228627594-line-33">
    <rect x="0" y="806.7" width="1464" height="24.65"/>
            </clipPath>
<clipPath id="terminal-1228627594-line-34">
    <rect x="0" y="831.1" width="1464" height="24.65"/>
            </clipPath>
<clipPath id="terminal-1228627594-line-35">
    <rect x="0" y="855.5" width="1464" height="24.65"/>
            </clipPath>
<clipPath id="terminal-1228627594-line-36">
    <rect x="0" y="879.9" width="1464" height="24.65"/>
            </clipPath>
<clipPath id="terminal-1228627594-line-37">
    <rect x="0" y="904.3" width="1464" height="24.65"/>
            </clipPath>
<clipPath id="terminal-1228627594-line-38">
    <rect x="0" y="928.7" width="1464" height="24.65"/>
            </clipPath>
    </defs>

    <rect fill="#292929" stroke="rgba(255,255,255,0.35)" stroke-width="1" x="1" y="1" width="1480" height="1024" rx="8"/><text class="terminal-1228627594-title" fill="#c5c8c6" text-anchor="middle" x="740" y="27">SYNTHETIC&#160;ONLY&#160;·&#160;Setup&#160;V2&#160;·&#160;review&#160;·&#160;120x40</text>
            <g transform="translate(26,22)">
            <circle cx="0" cy="0" r="7" fill="#ff5f57"/>
            <circle cx="22" cy="0" r="7" fill="#febc2e"/>
            <circle cx="44" cy="0" r="7" fill="#28c840"/>
            </g>

    <g transform="translate(9, 41)" clip-path="url(#terminal-1228627594-clip-terminal)">
    <rect fill="#656565" x="0" y="1.5" width="475.8" height="24.65" shape-rendering="crispEdges"/><rect fill="#656565" x="475.8" y="1.5" width="500.2" height="24.65" shape-rendering="crispEdges"/><rect fill="#656565" x="976" y="1.5" width="488" height="24.65" shape-rendering="crispEdges"/><rect fill="#656565" x="0" y="25.9" width="1464" height="24.65" shape-rendering="crispEdges"/><rect fill="#1e1e1e" x="0" y="50.3" width="12.2" height="24.65" shape-rendering="crispEdges"/><rect fill="#1e1e1e" x="12.2" y="50.3" width="732" height="24.65" shape-rendering="crispEdges"/><rect fill="#1e1e1e" x="744.2" y="50.3" width="707.6" height="24.65" shape-rendering="crispEdges"/><rect fill="#1e1e1e" x="1451.8" y="50.3" width="12.2" height="24.65" shape-rendering="crispEdges"/><rect fill="#1e1e1e" x="0" y="74.7" width="12.2" height="24.65" shape-rendering="crispEdges"/><rect fill="#1e1e1e" x="12.2" y="74.7" width="1061.4" height="24.65" shape-rendering="crispEdges"/><rect fill="#1e1e1e" x="1073.6" y="74.7" width="378.2" height="24.65" shape-rendering="crispEdges"/><rect fill="#1e1e1e" x="1451.8" y="74.7" width="12.2" height="24.65" shape-rendering="crispEdges"/><rect fill="#1e1e1e" x="0" y="99.1" width="12.2" height="24.65" shape-rendering="crispEdges"/><rect fill="#1e1e1e" x="12.2" y="99.1" width="512.4" height="24.65" shape-rendering="crispEdges"/><rect fill="#1e1e1e" x="524.6" y="99.1" width="927.2" height="24.65" shape-rendering="crispEdges"/><rect fill="#1e1e1e" x="1451.8" y="99.1" width="12.2" height="24.65" shape-rendering="crispEdges"/><rect fill="#1e1e1e" x="0" y="123.5" width="12.2" height="24.65" shape-rendering="crispEdges"/><rect fill="#1e1e1e" x="12.2" y="123.5" width="536.8" height="24.65" shape-rendering="crispEdges"/><rect fill="#1e1e1e" x="549" y="123.5" width="902.8" height="24.65" shape-rendering="crispEdges"/><rect fill="#1e1e1e" x="1451.8" y="123.5" width="12.2" height="24.65" shape-rendering="crispEdges"/><rect fill="#1e1e1e" x="0" y="147.9" width="12.2" height="24.65" shape-rendering="crispEdges"/><rect fill="#1e1e1e" x="12.2" y="147.9" width="439.2" height="24.65" shape-rendering="crispEdges"/><rect fill="#1e1e1e" x="451.4" y="147.9" width="1000.4" height="24.65" shape-rendering="crispEdges"/><rect fill="#1e1e1e" x="1451.8" y="147.9" width="12.2" height="24.65" shape-rendering="crispEdges"/><rect fill="#1e1e1e" x="0" y="172.3" width="12.2" height="24.65" shape-rendering="crispEdges"/><rect fill="#1e1e1e" x="12.2" y="172.3" width="536.8" height="24.65" shape-rendering="crispEdges"/><rect fill="#1e1e1e" x="549" y="172.3" width="902.8" height="24.65" shape-rendering="crispEdges"/><rect fill="#1e1e1e" x="1451.8" y="172.3" width="12.2" height="24.65" shape-rendering="crispEdges"/><rect fill="#1e1e1e" x="0" y="196.7" width="12.2" height="24.65" shape-rendering="crispEdges"/><rect fill="#1e1e1e" x="12.2" y="196.7" width="427" height="24.65" shape-rendering="crispEdges"/><rect fill="#1e1e1e" x="439.2" y="196.7" width="1012.6" height="24.65" shape-rendering="crispEdges"/><rect fill="#1e1e1e" x="1451.8" y="196.7" width="12.2" height="24.65" shape-rendering="crispEdges"/><rect fill="#1e1e1e" x="0" y="221.1" width="12.2" height="24.65" shape-rendering="crispEdges"/><rect fill="#1e1e1e" x="12.2" y="221.1" width="536.8" height="24.65" shape-rendering="crispEdges"/><rect fill="#1e1e1e" x="549" y="221.1" width="902.8" height="24.65" shape-rendering="crispEdges"/><rect fill="#1e1e1e" x="1451.8" y="221.1" width="12.2" height="24.65" shape-rendering="crispEdges"/><rect fill="#1e1e1e" x="0" y="245.5" width="12.2" height="24.65" shape-rendering="crispEdges"/><rect fill="#1e1e1e" x="12.2" y="245.5" width="512.4" height="24.65" shape-rendering="crispEdges"/><rect fill="#1e1e1e" x="524.6" y="245.5" width="927.2" height="24.65" shape-rendering="crispEdges"/><rect fill="#1e1e1e" x="1451.8" y="245.5" width="12.2" height="24.65" shape-rendering="crispEdges"/><rect fill="#1e1e1e" x="0" y="269.9" width="12.2" height="24.65" shape-rendering="crispEdges"/><rect fill="#1e1e1e" x="12.2" y="269.9" width="536.8" height="24.65" shape-rendering="crispEdges"/><rect fill="#1e1e1e" x="549" y="269.9" width="902.8" height="24.65" shape-rendering="crispEdges"/><rect fill="#1e1e1e" x="1451.8" y="269.9" width="12.2" height="24.65" shape-rendering="crispEdges"/><rect fill="#1e1e1e" x="0" y="294.3" width="12.2" height="24.65" shape-rendering="crispEdges"/><rect fill="#1e1e1e" x="12.2" y="294.3" width="512.4" height="24.65" shape-rendering="crispEdges"/><rect fill="#1e1e1e" x="524.6" y="294.3" width="927.2" height="24.65" shape-rendering="crispEdges"/><rect fill="#1e1e1e" x="1451.8" y="294.3" width="12.2" height="24.65" shape-rendering="crispEdges"/><rect fill="#1e1e1e" x="0" y="318.7" width="12.2" height="24.65" shape-rendering="crispEdges"/><rect fill="#1e1e1e" x="12.2" y="318.7" width="585.6" height="24.65" shape-rendering="crispEdges"/><rect fill="#1e1e1e" x="597.8" y="318.7" width="854" height="24.65" shape-rendering="crispEdges"/><rect fill="#1e1e1e" x="1451.8" y="318.7" width="12.2" height="24.65" shape-rendering="crispEdges"/><rect fill="#1e1e1e" x="0" y="343.1" width="12.2" height="24.65" shape-rendering="crispEdges"/><rect fill="#1e1e1e" x="12.2" y="343.1" width="597.8" height="24.65" shape-rendering="crispEdges"/><rect fill="#1e1e1e" x="610" y="343.1" width="841.8" height="24.65" shape-rendering="crispEdges"/><rect fill="#1e1e1e" x="1451.8" y="343.1" width="12.2" height="24.65" shape-rendering="crispEdges"/><rect fill="#1e1e1e" x="0" y="367.5" width="12.2" height="24.65" shape-rendering="crispEdges"/><rect fill="#1e1e1e" x="12.2" y="367.5" width="512.4" height="24.65" shape-rendering="crispEdges"/><rect fill="#1e1e1e" x="524.6" y="367.5" width="927.2" height="24.65" shape-rendering="crispEdges"/><rect fill="#1e1e1e" x="1451.8" y="367.5" width="12.2" height="24.65" shape-rendering="crispEdges"/><rect fill="#1e1e1e" x="0" y="391.9" width="12.2" height="24.65" shape-rendering="crispEdges"/><rect fill="#1e1e1e" x="12.2" y="391.9" width="1439.6" height="24.65" shape-rendering="crispEdges"/><rect fill="#1e1e1e" x="1451.8" y="391.9" width="12.2" height="24.65" shape-rendering="crispEdges"/><rect fill="#1e1e1e" x="0" y="416.3" width="12.2" height="24.65" shape-rendering="crispEdges"/><rect fill="#191919" x="12.2" y="416.3" width="12.2" height="24.65" shape-rendering="crispEdges"/><rect fill="#1e1e1e" x="24.4" y="416.3" width="231.8" height="24.65" shape-rendering="crispEdges"/><rect fill="#1e1e1e" x="256.2" y="416.3" width="12.2" height="24.65" shape-rendering="crispEdges"/><rect fill="#1e1e1e" x="268.4" y="416.3" width="1183.4" height="24.65" shape-rendering="crispEdges"/><rect fill="#1e1e1e" x="1451.8" y="416.3" width="12.2" height="24.65" shape-rendering="crispEdges"/><rect fill="#1e1e1e" x="0" y="440.7" width="12.2" height="24.65" shape-rendering="crispEdges"/><rect fill="#191919" x="12.2" y="440.7" width="12.2" height="24.65" shape-rendering="crispEdges"/><rect fill="#1e1e1e" x="24.4" y="440.7" width="12.2" height="24.65" shape-rendering="crispEdges"/><rect fill="#1e1e1e" x="36.6" y="440.7" width="12.2" height="24.65" shape-rendering="crispEdges"/><rect fill="#2d2d2d" x="48.8" y="440.7" width="12.2" height="24.65" shape-rendering="crispEdges"/><rect fill="#1e1e1e" x="61" y="440.7" width="12.2" height="24.65" shape-rendering="crispEdges"/><rect fill="#1e1e1e" x="73.2" y="440.7" width="170.8" height="24.65" shape-rendering="crispEdges"/><rect fill="#1e1e1e" x="244" y="440.7" width="12.2" height="24.65" shape-rendering="crispEdges"/><rect fill="#1e1e1e" x="256.2" y="440.7" width="12.2" height="24.65" shape-rendering="crispEdges"/><rect fill="#1e1e1e" x="268.4" y="440.7" width="1183.4" height="24.65" shape-rendering="crispEdges"/><rect fill="#1e1e1e" x="1451.8" y="440.7" width="12.2" height="24.65" shape-rendering="crispEdges"/><rect fill="#1e1e1e" x="0" y="465.1" width="12.2" height="24.65" shape-rendering="crispEdges"/><rect fill="#191919" x="12.2" y="465.1" width="12.2" height="24.65" shape-rendering="crispEdges"/><rect fill="#1e1e1e" x="24.4" y="465.1" width="231.8" height="24.65" shape-rendering="crispEdges"/><rect fill="#1e1e1e" x="256.2" y="465.1" width="12.2" height="24.65" shape-rendering="crispEdges"/><rect fill="#1e1e1e" x="268.4" y="465.1" width="1183.4" height="24.65" shape-rendering="crispEdges"/><rect fill="#1e1e1e" x="1451.8" y="465.1" width="12.2" height="24.65" shape-rendering="crispEdges"/><rect fill="#1e1e1e" x="0" y="489.5" width="12.2" height="24.65" shape-rendering="crispEdges"/><rect fill="#191919" x="12.2" y="489.5" width="12.2" height="24.65" shape-rendering="crispEdges"/><rect fill="#1e1e1e" x="24.4" y="489.5" width="353.8" height="24.65" shape-rendering="crispEdges"/><rect fill="#1e1e1e" x="378.2" y="489.5" width="12.2" height="24.65" shape-rendering="crispEdges"/><rect fill="#1e1e1e" x="390.4" y="489.5" width="1061.4" height="24.65" shape-rendering="crispEdges"/><rect fill="#1e1e1e" x="1451.8" y="489.5" width="12.2" height="24.65" shape-rendering="crispEdges"/><rect fill="#1e1e1e" x="0" y="513.9" width="12.2" height="24.65" shape-rendering="crispEdges"/><rect fill="#191919" x="12.2" y="513.9" width="12.2" height="24.65" shape-rendering="crispEdges"/><rect fill="#1e1e1e" x="24.4" y="513.9" width="12.2" height="24.65" shape-rendering="crispEdges"/><rect fill="#1e1e1e" x="36.6" y="513.9" width="12.2" height="24.65" shape-rendering="crispEdges"/><rect fill="#2d2d2d" x="48.8" y="513.9" width="12.2" height="24.65" shape-rendering="crispEdges"/><rect fill="#1e1e1e" x="61" y="513.9" width="12.2" height="24.65" shape-rendering="crispEdges"/><rect fill="#1e1e1e" x="73.2" y="513.9" width="292.8" height="24.65" shape-rendering="crispEdges"/><rect fill="#1e1e1e" x="366" y="513.9" width="12.2" height="24.65" shape-rendering="crispEdges"/><rect fill="#1e1e1e" x="378.2" y="513.9" width="12.2" height="24.65" shape-rendering="crispEdges"/><rect fill="#1e1e1e" x="390.4" y="513.9" width="1061.4" height="24.65" shape-rendering="crispEdges"/><rect fill="#1e1e1e" x="1451.8" y="513.9" width="12.2" height="24.65" shape-rendering="crispEdges"/><rect fill="#1e1e1e" x="0" y="538.3" width="12.2" height="24.65" shape-rendering="crispEdges"/><rect fill="#191919" x="12.2" y="538.3" width="12.2" height="24.65" shape-rendering="crispEdges"/><rect fill="#1e1e1e" x="24.4" y="538.3" width="353.8" height="24.65" shape-rendering="crispEdges"/><rect fill="#1e1e1e" x="378.2" y="538.3" width="12.2" height="24.65" shape-rendering="crispEdges"/><rect fill="#1e1e1e" x="390.4" y="538.3" width="1061.4" height="24.65" shape-rendering="crispEdges"/><rect fill="#1e1e1e" x="1451.8" y="538.3" width="12.2" height="24.65" shape-rendering="crispEdges"/><rect fill="#1e1e1e" x="0" y="562.7" width="12.2" height="24.65" shape-rendering="crispEdges"/><rect fill="#1e1e1e" x="12.2" y="562.7" width="122" height="24.65" shape-rendering="crispEdges"/><rect fill="#1e1e1e" x="134.2" y="562.7" width="1317.6" height="24.65" shape-rendering="crispEdges"/><rect fill="#1e1e1e" x="1451.8" y="562.7" width="12.2" height="24.65" shape-rendering="crispEdges"/><rect fill="#1e1e1e" x="0" y="587.1" width="12.2" height="24.65" shape-rendering="crispEdges"/><rect fill="#1e1e1e" x="12.2" y="587.1" width="24.4" height="24.65" shape-rendering="crispEdges"/><rect fill="#1e1e1e" x="36.6" y="587.1" width="73.2" height="24.65" shape-rendering="crispEdges"/><rect fill="#1e1e1e" x="109.8" y="587.1" width="24.4" height="24.65" shape-rendering="crispEdges"/><rect fill="#1e1e1e" x="134.2" y="587.1" width="1317.6" height="24.65" shape-rendering="crispEdges"/><rect fill="#1e1e1e" x="1451.8" y="587.1" width="12.2" height="24.65" shape-rendering="crispEdges"/><rect fill="#1e1e1e" x="0" y="611.5" width="12.2" height="24.65" shape-rendering="crispEdges"/><rect fill="#1e1e1e" x="12.2" y="611.5" width="122" height="24.65" shape-rendering="crispEdges"/><rect fill="#1e1e1e" x="134.2" y="611.5" width="1317.6" height="24.65" shape-rendering="crispEdges"/><rect fill="#1e1e1e" x="1451.8" y="611.5" width="12.2" height="24.65" shape-rendering="crispEdges"/><rect fill="#1e1e1e" x="0" y="635.9" width="12.2" height="24.65" shape-rendering="crispEdges"/><rect fill="#1e1e1e" x="12.2" y="635.9" width="1439.6" height="24.65" shape-rendering="crispEdges"/><rect fill="#1e1e1e" x="1451.8" y="635.9" width="12.2" height="24.65" shape-rendering="crispEdges"/><rect fill="#1e1e1e" x="0" y="660.3" width="12.2" height="24.65" shape-rendering="crispEdges"/><rect fill="#1e1e1e" x="12.2" y="660.3" width="1439.6" height="24.65" shape-rendering="crispEdges"/><rect fill="#1e1e1e" x="1451.8" y="660.3" width="12.2" height="24.65" shape-rendering="crispEdges"/><rect fill="#1e1e1e" x="0" y="684.7" width="12.2" height="24.65" shape-rendering="crispEdges"/><rect fill="#1e1e1e" x="12.2" y="684.7" width="1439.6" height="24.65" shape-rendering="crispEdges"/><rect fill="#1e1e1e" x="1451.8" y="684.7" width="12.2" height="24.65" shape-rendering="crispEdges"/><rect fill="#1e1e1e" x="0" y="709.1" width="12.2" height="24.65" shape-rendering="crispEdges"/><rect fill="#1e1e1e" x="12.2" y="709.1" width="1439.6" height="24.65" shape-rendering="crispEdges"/><rect fill="#1e1e1e" x="1451.8" y="709.1" width="12.2" height="24.65" shape-rendering="crispEdges"/><rect fill="#1e1e1e" x="0" y="733.5" width="12.2" height="24.65" shape-rendering="crispEdges"/><rect fill="#1e1e1e" x="12.2" y="733.5" width="1439.6" height="24.65" shape-rendering="crispEdges"/><rect fill="#1e1e1e" x="1451.8" y="733.5" width="12.2" height="24.65" shape-rendering="crispEdges"/><rect fill="#1e1e1e" x="0" y="757.9" width="12.2" height="24.65" shape-rendering="crispEdges"/><rect fill="#1e1e1e" x="12.2" y="757.9" width="1439.6" height="24.65" shape-rendering="crispEdges"/><rect fill="#1e1e1e" x="1451.8" y="757.9" width="12.2" height="24.65" shape-rendering="crispEdges"/><rect fill="#1e1e1e" x="0" y="782.3" width="12.2" height="24.65" shape-rendering="crispEdges"/><rect fill="#1e1e1e" x="12.2" y="782.3" width="1439.6" height="24.65" shape-rendering="crispEdges"/><rect fill="#1e1e1e" x="1451.8" y="782.3" width="12.2" height="24.65" shape-rendering="crispEdges"/><rect fill="#1e1e1e" x="0" y="806.7" width="12.2" height="24.65" shape-rendering="crispEdges"/><rect fill="#1e1e1e" x="12.2" y="806.7" width="1439.6" height="24.65" shape-rendering="crispEdges"/><rect fill="#1e1e1e" x="1451.8" y="806.7" width="12.2" height="24.65" shape-rendering="crispEdges"/><rect fill="#1e1e1e" x="0" y="831.1" width="12.2" height="24.65" shape-rendering="crispEdges"/><rect fill="#1e1e1e" x="12.2" y="831.1" width="1439.6" height="24.65" shape-rendering="crispEdges"/><rect fill="#1e1e1e" x="1451.8" y="831.1" width="12.2" height="24.65" shape-rendering="crispEdges"/><rect fill="#1e1e1e" x="0" y="855.5" width="12.2" height="24.65" shape-rendering="crispEdges"/><rect fill="#1e1e1e" x="12.2" y="855.5" width="634.4" height="24.65" shape-rendering="crispEdges"/><rect fill="#1e1e1e" x="646.6" y="855.5" width="805.2" height="24.65" shape-rendering="crispEdges"/><rect fill="#1e1e1e" x="1451.8" y="855.5" width="12.2" height="24.65" shape-rendering="crispEdges"/><rect fill="#1e1e1e" x="0" y="879.9" width="12.2" height="24.65" shape-rendering="crispEdges"/><rect fill="#1e1e1e" x="12.2" y="879.9" width="122" height="24.65" shape-rendering="crispEdges"/><rect fill="#1e1e1e" x="134.2" y="879.9" width="12.2" height="24.65" shape-rendering="crispEdges"/><rect fill="#6b6b6b" x="146.4" y="879.9" width="122" height="24.65" shape-rendering="crispEdges"/><rect fill="#1e1e1e" x="268.4" y="879.9" width="1183.4" height="24.65" shape-rendering="crispEdges"/><rect fill="#1e1e1e" x="1451.8" y="879.9" width="12.2" height="24.65" shape-rendering="crispEdges"/><rect fill="#1e1e1e" x="0" y="904.3" width="12.2" height="24.65" shape-rendering="crispEdges"/><rect fill="#1e1e1e" x="12.2" y="904.3" width="12.2" height="24.65" shape-rendering="crispEdges"/><rect fill="#1e1e1e" x="24.4" y="904.3" width="97.6" height="24.65" shape-rendering="crispEdges"/><rect fill="#1e1e1e" x="122" y="904.3" width="12.2" height="24.65" shape-rendering="crispEdges"/><rect fill="#1e1e1e" x="134.2" y="904.3" width="12.2" height="24.65" shape-rendering="crispEdges"/><rect fill="#6b6b6b" x="146.4" y="904.3" width="12.2" height="24.65" shape-rendering="crispEdges"/><rect fill="#ececec" x="158.6" y="904.3" width="97.6" height="24.65" shape-rendering="crispEdges"/><rect fill="#6b6b6b" x="256.2" y="904.3" width="12.2" height="24.65" shape-rendering="crispEdges"/><rect fill="#1e1e1e" x="268.4" y="904.3" width="1183.4" height="24.65" shape-rendering="crispEdges"/><rect fill="#1e1e1e" x="1451.8" y="904.3" width="12.2" height="24.65" shape-rendering="crispEdges"/><rect fill="#1e1e1e" x="0" y="928.7" width="12.2" height="24.65" shape-rendering="crispEdges"/><rect fill="#1e1e1e" x="12.2" y="928.7" width="122" height="24.65" shape-rendering="crispEdges"/><rect fill="#1e1e1e" x="134.2" y="928.7" width="12.2" height="24.65" shape-rendering="crispEdges"/><rect fill="#6b6b6b" x="146.4" y="928.7" width="122" height="24.65" shape-rendering="crispEdges"/><rect fill="#1e1e1e" x="268.4" y="928.7" width="1183.4" height="24.65" shape-rendering="crispEdges"/><rect fill="#1e1e1e" x="1451.8" y="928.7" width="12.2" height="24.65" shape-rendering="crispEdges"/><rect fill="#2d2d2d" x="0" y="953.1" width="48.8" height="24.65" shape-rendering="crispEdges"/><rect fill="#2d2d2d" x="48.8" y="953.1" width="61" height="24.65" shape-rendering="crispEdges"/><rect fill="#2d2d2d" x="109.8" y="953.1" width="61" height="24.65" shape-rendering="crispEdges"/><rect fill="#2d2d2d" x="170.8" y="953.1" width="61" height="24.65" shape-rendering="crispEdges"/><rect fill="#2d2d2d" x="231.8" y="953.1" width="36.6" height="24.65" shape-rendering="crispEdges"/><rect fill="#2d2d2d" x="268.4" y="953.1" width="109.8" height="24.65" shape-rendering="crispEdges"/><rect fill="#2d2d2d" x="378.2" y="953.1" width="36.6" height="24.65" shape-rendering="crispEdges"/><rect fill="#2d2d2d" x="414.8" y="953.1" width="61" height="24.65" shape-rendering="crispEdges"/><rect fill="#2d2d2d" x="475.8" y="953.1" width="841.8" height="24.65" shape-rendering="crispEdges"/><rect fill="#2d2d2d" x="1317.6" y="953.1" width="12.2" height="24.65" shape-rendering="crispEdges"/><rect fill="#2d2d2d" x="1329.8" y="953.1" width="24.4" height="24.65" shape-rendering="crispEdges"/><rect fill="#2d2d2d" x="1354.2" y="953.1" width="97.6" height="24.65" shape-rendering="crispEdges"/><rect fill="#2d2d2d" x="1451.8" y="953.1" width="12.2" height="24.65" shape-rendering="crispEdges"/>
    <g class="terminal-1228627594-matrix">
    <text class="terminal-1228627594-r1" x="475.8" y="20" textLength="390.4" clip-path="url(#terminal-1228627594-line-0)">Agent&#160;Runtime&#160;安装向导&#160;·&#160;4/4&#160;·&#160;预览与安装</text><text class="terminal-1228627594-r2" x="1464" y="20" textLength="12.2" clip-path="url(#terminal-1228627594-line-0)">
</text><text class="terminal-1228627594-r2" x="1464" y="44.4" textLength="12.2" clip-path="url(#terminal-1228627594-line-1)">
</text><text class="terminal-1228627594-r3" x="12.2" y="68.8" textLength="366" clip-path="url(#terminal-1228627594-line-2)">请审查以下实际变更，再批准安装。账户连接与本地安装独立验收。</text><text class="terminal-1228627594-r2" x="1464" y="68.8" textLength="12.2" clip-path="url(#terminal-1228627594-line-2)">
</text><text class="terminal-1228627594-r3" x="12.2" y="93.2" textLength="622.2" clip-path="url(#terminal-1228627594-line-3)">核验安装目录并写入&#160;HOST_AGENT.md。&#160;拉取固定公开镜像；启动隔离本地验证容器（暂不联网）。</text><text class="terminal-1228627594-r2" x="1464" y="93.2" textLength="12.2" clip-path="url(#terminal-1228627594-line-3)">
</text><text class="terminal-1228627594-r3" x="12.2" y="117.6" textLength="475.8" clip-path="url(#terminal-1228627594-line-4)">工作区&#160;&#160;C:/Example/AgentRuntime/workspaces</text><text class="terminal-1228627594-r2" x="1464" y="117.6" textLength="12.2" clip-path="url(#terminal-1228627594-line-4)">
</text><text class="terminal-1228627594-r3" x="12.2" y="142" textLength="402.6" clip-path="url(#terminal-1228627594-line-5)">&#160;&#160;NVMe&#160;SSD&#160;·&#160;80&#160;GiB&#160;·&#160;新建目录；当前磁盘规划</text><text class="terminal-1228627594-r2" x="1464" y="142" textLength="12.2" clip-path="url(#terminal-1228627594-line-5)">
</text><text class="terminal-1228627594-r3" x="12.2" y="166.4" textLength="414.8" clip-path="url(#terminal-1228627594-line-6)">配置&#160;&#160;C:/Example/AgentRuntime/config</text><text class="terminal-1228627594-r2" x="1464" y="166.4" textLength="12.2" clip-path="url(#terminal-1228627594-line-6)">
</text><text class="terminal-1228627594-r3" x="12.2" y="190.8" textLength="402.6" clip-path="url(#terminal-1228627594-line-7)">&#160;&#160;NVMe&#160;SSD&#160;·&#160;80&#160;GiB&#160;·&#160;新建目录；当前磁盘规划</text><text class="terminal-1228627594-r2" x="1464" y="190.8" textLength="12.2" clip-path="url(#terminal-1228627594-line-7)">
</text><text class="terminal-1228627594-r3" x="12.2" y="215.2" textLength="402.6" clip-path="url(#terminal-1228627594-line-8)">缓存&#160;&#160;C:/Example/AgentRuntime/cache</text><text class="terminal-1228627594-r2" x="1464" y="215.2" textLength="12.2" clip-path="url(#terminal-1228627594-line-8)">
</text><text class="terminal-1228627594-r3" x="12.2" y="239.6" textLength="402.6" clip-path="url(#terminal-1228627594-line-9)">&#160;&#160;NVMe&#160;SSD&#160;·&#160;80&#160;GiB&#160;·&#160;新建目录；当前磁盘规划</text><text class="terminal-1228627594-r2" x="1464" y="239.6" textLength="12.2" clip-path="url(#terminal-1228627594-line-9)">
</text><text class="terminal-1228627594-r3" x="12.2" y="264" textLength="463.6" clip-path="url(#terminal-1228627594-line-10)">临时文件&#160;&#160;C:/Example/AgentRuntime/attempts</text><text class="terminal-1228627594-r2" x="1464" y="264" textLength="12.2" clip-path="url(#terminal-1228627594-line-10)">
</text><text class="terminal-1228627594-r3" x="12.2" y="288.4" textLength="402.6" clip-path="url(#terminal-1228627594-line-11)">&#160;&#160;NVMe&#160;SSD&#160;·&#160;80&#160;GiB&#160;·&#160;新建目录；当前磁盘规划</text><text class="terminal-1228627594-r2" x="1464" y="288.4" textLength="12.2" clip-path="url(#terminal-1228627594-line-11)">
</text><text class="terminal-1228627594-r3" x="12.2" y="312.8" textLength="512.4" clip-path="url(#terminal-1228627594-line-12)">Exchange&#160;&#160;C:/Example/AgentRuntime/exchange</text><text class="terminal-1228627594-r2" x="1464" y="312.8" textLength="12.2" clip-path="url(#terminal-1228627594-line-12)">
</text><text class="terminal-1228627594-r3" x="12.2" y="337.2" textLength="427" clip-path="url(#terminal-1228627594-line-13)">&#160;&#160;NVMe&#160;SSD&#160;·&#160;80&#160;GiB&#160;·&#160;独立交换目录；保留原生状态</text><text class="terminal-1228627594-r2" x="1464" y="337.2" textLength="12.2" clip-path="url(#terminal-1228627594-line-13)">
</text><text class="terminal-1228627594-r3" x="12.2" y="361.6" textLength="597.8" clip-path="url(#terminal-1228627594-line-14)">HOST_AGENT.md&#160;&#160;C:/Example/Documents/HOST_AGENT.md</text><text class="terminal-1228627594-r2" x="1464" y="361.6" textLength="12.2" clip-path="url(#terminal-1228627594-line-14)">
</text><text class="terminal-1228627594-r3" x="12.2" y="386" textLength="366" clip-path="url(#terminal-1228627594-line-15)">&#160;&#160;NTFS&#160;·&#160;80&#160;GiB&#160;·&#160;系统文档目录；原版本保护</text><text class="terminal-1228627594-r2" x="1464" y="386" textLength="12.2" clip-path="url(#terminal-1228627594-line-15)">
</text><text class="terminal-1228627594-r2" x="1464" y="410.4" textLength="12.2" clip-path="url(#terminal-1228627594-line-16)">
</text><text class="terminal-1228627594-r4" x="12.2" y="434.8" textLength="12.2" clip-path="url(#terminal-1228627594-line-17)">▊</text><text class="terminal-1228627594-r5" x="24.4" y="434.8" textLength="231.8" clip-path="url(#terminal-1228627594-line-17)">▔▔▔▔▔▔▔▔▔▔▔▔▔▔▔▔▔▔▔</text><text class="terminal-1228627594-r5" x="256.2" y="434.8" textLength="12.2" clip-path="url(#terminal-1228627594-line-17)">▎</text><text class="terminal-1228627594-r2" x="1464" y="434.8" textLength="12.2" clip-path="url(#terminal-1228627594-line-17)">
</text><text class="terminal-1228627594-r4" x="12.2" y="459.2" textLength="12.2" clip-path="url(#terminal-1228627594-line-18)">▊</text><text class="terminal-1228627594-r6" x="36.6" y="459.2" textLength="12.2" clip-path="url(#terminal-1228627594-line-18)">▐</text><text class="terminal-1228627594-r7" x="48.8" y="459.2" textLength="12.2" clip-path="url(#terminal-1228627594-line-18)">X</text><text class="terminal-1228627594-r6" x="61" y="459.2" textLength="12.2" clip-path="url(#terminal-1228627594-line-18)">▌</text><text class="terminal-1228627594-r3" x="73.2" y="459.2" textLength="97.6" clip-path="url(#terminal-1228627594-line-18)">&#160;安装本地容器&#160;</text><text class="terminal-1228627594-r5" x="256.2" y="459.2" textLength="12.2" clip-path="url(#terminal-1228627594-line-18)">▎</text><text class="terminal-1228627594-r2" x="1464" y="459.2" textLength="12.2" clip-path="url(#terminal-1228627594-line-18)">
</text><text class="terminal-1228627594-r4" x="12.2" y="483.6" textLength="12.2" clip-path="url(#terminal-1228627594-line-19)">▊</text><text class="terminal-1228627594-r5" x="24.4" y="483.6" textLength="231.8" clip-path="url(#terminal-1228627594-line-19)">▁▁▁▁▁▁▁▁▁▁▁▁▁▁▁▁▁▁▁</text><text class="terminal-1228627594-r5" x="256.2" y="483.6" textLength="12.2" clip-path="url(#terminal-1228627594-line-19)">▎</text><text class="terminal-1228627594-r2" x="1464" y="483.6" textLength="12.2" clip-path="url(#terminal-1228627594-line-19)">
</text><text class="terminal-1228627594-r4" x="12.2" y="508" textLength="12.2" clip-path="url(#terminal-1228627594-line-20)">▊</text><text class="terminal-1228627594-r5" x="24.4" y="508" textLength="353.8" clip-path="url(#terminal-1228627594-line-20)">▔▔▔▔▔▔▔▔▔▔▔▔▔▔▔▔▔▔▔▔▔▔▔▔▔▔▔▔▔</text><text class="terminal-1228627594-r5" x="378.2" y="508" textLength="12.2" clip-path="url(#terminal-1228627594-line-20)">▎</text><text class="terminal-1228627594-r2" x="1464" y="508" textLength="12.2" clip-path="url(#terminal-1228627594-line-20)">
</text><text class="terminal-1228627594-r4" x="12.2" y="532.4" textLength="12.2" clip-path="url(#terminal-1228627594-line-21)">▊</text><text class="terminal-1228627594-r6" x="36.6" y="532.4" textLength="12.2" clip-path="url(#terminal-1228627594-line-21)">▐</text><text class="terminal-1228627594-r8" x="48.8" y="532.4" textLength="12.2" clip-path="url(#terminal-1228627594-line-21)">X</text><text class="terminal-1228627594-r6" x="61" y="532.4" textLength="12.2" clip-path="url(#terminal-1228627594-line-21)">▌</text><text class="terminal-1228627594-r3" x="73.2" y="532.4" textLength="158.6" clip-path="url(#terminal-1228627594-line-21)">&#160;我已审查并批准这次安装&#160;</text><text class="terminal-1228627594-r5" x="378.2" y="532.4" textLength="12.2" clip-path="url(#terminal-1228627594-line-21)">▎</text><text class="terminal-1228627594-r2" x="1464" y="532.4" textLength="12.2" clip-path="url(#terminal-1228627594-line-21)">
</text><text class="terminal-1228627594-r4" x="12.2" y="556.8" textLength="12.2" clip-path="url(#terminal-1228627594-line-22)">▊</text><text class="terminal-1228627594-r5" x="24.4" y="556.8" textLength="353.8" clip-path="url(#terminal-1228627594-line-22)">▁▁▁▁▁▁▁▁▁▁▁▁▁▁▁▁▁▁▁▁▁▁▁▁▁▁▁▁▁</text><text class="terminal-1228627594-r5" x="378.2" y="556.8" textLength="12.2" clip-path="url(#terminal-1228627594-line-22)">▎</text><text class="terminal-1228627594-r2" x="1464" y="556.8" textLength="12.2" clip-path="url(#terminal-1228627594-line-22)">
</text><text class="terminal-1228627594-r9" x="12.2" y="581.2" textLength="122" clip-path="url(#terminal-1228627594-line-23)">▔▔▔▔▔▔▔▔▔▔</text><text class="terminal-1228627594-r2" x="1464" y="581.2" textLength="12.2" clip-path="url(#terminal-1228627594-line-23)">
</text><text class="terminal-1228627594-r10" x="36.6" y="605.6" textLength="48.8" clip-path="url(#terminal-1228627594-line-24)">&#160;安装&#160;</text><text class="terminal-1228627594-r2" x="1464" y="605.6" textLength="12.2" clip-path="url(#terminal-1228627594-line-24)">
</text><text class="terminal-1228627594-r11" x="12.2" y="630" textLength="122" clip-path="url(#terminal-1228627594-line-25)">▁▁▁▁▁▁▁▁▁▁</text><text class="terminal-1228627594-r2" x="1464" y="630" textLength="12.2" clip-path="url(#terminal-1228627594-line-25)">
</text><text class="terminal-1228627594-r2" x="1464" y="654.4" textLength="12.2" clip-path="url(#terminal-1228627594-line-26)">
</text><text class="terminal-1228627594-r2" x="1464" y="678.8" textLength="12.2" clip-path="url(#terminal-1228627594-line-27)">
</text><text class="terminal-1228627594-r2" x="1464" y="703.2" textLength="12.2" clip-path="url(#terminal-1228627594-line-28)">
</text><text class="terminal-1228627594-r2" x="1464" y="727.6" textLength="12.2" clip-path="url(#terminal-1228627594-line-29)">
</text><text class="terminal-1228627594-r2" x="1464" y="752" textLength="12.2" clip-path="url(#terminal-1228627594-line-30)">
</text><text class="terminal-1228627594-r2" x="1464" y="776.4" textLength="12.2" clip-path="url(#terminal-1228627594-line-31)">
</text><text class="terminal-1228627594-r2" x="1464" y="800.8" textLength="12.2" clip-path="url(#terminal-1228627594-line-32)">
</text><text class="terminal-1228627594-r2" x="1464" y="825.2" textLength="12.2" clip-path="url(#terminal-1228627594-line-33)">
</text><text class="terminal-1228627594-r2" x="1464" y="849.6" textLength="12.2" clip-path="url(#terminal-1228627594-line-34)">
</text><text class="terminal-1228627594-r12" x="12.2" y="874" textLength="317.2" clip-path="url(#terminal-1228627594-line-35)">当前为安全预览。实际安装需要另行取得电脑所有者授权。</text><text class="terminal-1228627594-r2" x="1464" y="874" textLength="12.2" clip-path="url(#terminal-1228627594-line-35)">
</text><text class="terminal-1228627594-r6" x="12.2" y="898.4" textLength="122" clip-path="url(#terminal-1228627594-line-36)">▔▔▔▔▔▔▔▔▔▔</text><text class="terminal-1228627594-r13" x="146.4" y="898.4" textLength="122" clip-path="url(#terminal-1228627594-line-36)">▔▔▔▔▔▔▔▔▔▔</text><text class="terminal-1228627594-r2" x="1464" y="898.4" textLength="12.2" clip-path="url(#terminal-1228627594-line-36)">
</text><text class="terminal-1228627594-r1" x="24.4" y="922.8" textLength="61" clip-path="url(#terminal-1228627594-line-37)">&#160;上一步&#160;</text><text class="terminal-1228627594-r14" x="158.6" y="922.8" textLength="61" clip-path="url(#terminal-1228627594-line-37)">&#160;下一步&#160;</text><text class="terminal-1228627594-r2" x="1464" y="922.8" textLength="12.2" clip-path="url(#terminal-1228627594-line-37)">
</text><text class="terminal-1228627594-r15" x="12.2" y="947.2" textLength="122" clip-path="url(#terminal-1228627594-line-38)">▁▁▁▁▁▁▁▁▁▁</text><text class="terminal-1228627594-r16" x="146.4" y="947.2" textLength="122" clip-path="url(#terminal-1228627594-line-38)">▁▁▁▁▁▁▁▁▁▁</text><text class="terminal-1228627594-r2" x="1464" y="947.2" textLength="12.2" clip-path="url(#terminal-1228627594-line-38)">
</text><text class="terminal-1228627594-r17" x="0" y="971.6" textLength="48.8" clip-path="url(#terminal-1228627594-line-39)">&#160;^q&#160;</text><text class="terminal-1228627594-r3" x="48.8" y="971.6" textLength="61" clip-path="url(#terminal-1228627594-line-39)">Quit&#160;</text><text class="terminal-1228627594-r17" x="109.8" y="971.6" textLength="61" clip-path="url(#terminal-1228627594-line-39)">&#160;esc&#160;</text><text class="terminal-1228627594-r3" x="170.8" y="971.6" textLength="61" clip-path="url(#terminal-1228627594-line-39)">Back&#160;</text><text class="terminal-1228627594-r17" x="231.8" y="971.6" textLength="36.6" clip-path="url(#terminal-1228627594-line-39)">&#160;↑&#160;</text><text class="terminal-1228627594-r3" x="268.4" y="971.6" textLength="109.8" clip-path="url(#terminal-1228627594-line-39)">Previous&#160;</text><text class="terminal-1228627594-r17" x="378.2" y="971.6" textLength="36.6" clip-path="url(#terminal-1228627594-line-39)">&#160;↓&#160;</text><text class="terminal-1228627594-r3" x="414.8" y="971.6" textLength="61" clip-path="url(#terminal-1228627594-line-39)">Next&#160;</text><text class="terminal-1228627594-r18" x="1317.6" y="971.6" textLength="12.2" clip-path="url(#terminal-1228627594-line-39)">▏</text><text class="terminal-1228627594-r17" x="1329.8" y="971.6" textLength="24.4" clip-path="url(#terminal-1228627594-line-39)">^p</text><text class="terminal-1228627594-r3" x="1354.2" y="971.6" textLength="97.6" clip-path="url(#terminal-1228627594-line-39)">&#160;palette</text>
    </g>
    </g>
</svg>
